<svg width="864" height="617" viewBox="0 0 864 617" fill="none" xmlns="http://www.w3.org/2000/svg">
<path d="M128.551 180.699H347.934L307.118 246.029H128.551C83.4899 249.978 71.4855 265.745 72.4295 316.802C77.9483 351.089 90.1955 362.112 128.551 365.8H230.589C321.244 370.308 349.151 395.675 358.138 480.127C357.461 581.446 328.153 610.097 230.589 616.23H1.00244L36.716 550.9H230.589C278.935 546.535 292.643 531.318 291.813 480.127C284.704 445.412 271.537 434.56 230.589 431.129H128.551C39.3551 425.306 10.4123 399.611 1.00244 316.802C3.29278 216.753 31.1581 186.892 128.551 180.699Z" fill="white" stroke="white"/>
<path d="M538.406 0.6791H848.468L790.782 93.0117H538.406C474.72 98.5941 457.754 120.877 459.088 193.039C466.888 241.498 484.197 257.076 538.406 262.288H682.621C810.746 268.66 850.189 304.512 862.889 423.87C861.933 567.068 820.511 607.562 682.621 616.23H358.138L408.613 523.897H682.621C750.949 517.728 770.324 496.22 769.15 423.87C759.102 374.807 740.493 359.47 682.621 354.621H538.406C412.343 346.391 371.437 310.075 358.138 193.039C361.375 51.6349 400.758 9.43228 538.406 0.6791Z" fill="white" stroke="white"/>
</svg>
